<?xml version="1.0" encoding="UTF-8" standalone="no"?>
<svg
   viewBox="0 0 32 32"
   version="1.1"
   id="svg1"
   sodipodi:docname="folder_type_gnome.svg"
   inkscape:version="1.4.2 (ebf0e940d0, 2025-05-08)"
   xmlns:inkscape="http://www.inkscape.org/namespaces/inkscape"
   xmlns:sodipodi="http://sodipodi.sourceforge.net/DTD/sodipodi-0.dtd"
   xmlns="http://www.w3.org/2000/svg"
   xmlns:svg="http://www.w3.org/2000/svg">
  <defs
     id="defs1" />
  <sodipodi:namedview
     id="namedview1"
     pagecolor="#ffffff"
     bordercolor="#000000"
     borderopacity="0.25"
     inkscape:showpageshadow="2"
     inkscape:pageopacity="0.0"
     inkscape:pagecheckerboard="0"
     inkscape:deskcolor="#d1d1d1"
     inkscape:zoom="17.368"
     inkscape:cx="15.459"
     inkscape:cy="22.513"
     inkscape:window-width="1920"
     inkscape:window-height="1043"
     inkscape:window-x="26"
     inkscape:window-y="23"
     inkscape:window-maximized="0"
     inkscape:current-layer="svg1" />
  <title
     id="title1">default_folder</title>
  <path
     d="M27.5,5.5H18.2L16.1,9.7H4.4V26.5H29.6V5.5Zm0,4.2H19.3l1.1-2.1h7.1Z"
     style="fill:#3584e4;fill-opacity:1"
     id="path1" />
  <g
     id="g1"
     transform="matrix(0.11336,0,0,0.11336,29.073,2.3424)"
     style="fill:#99c1f1;fill-opacity:1">
    <path
       d="m -13.878,64.905 c -40.01,0 -47.515,56.985 -25.007,56.985 22.505,0 65.018,-56.985 25.007,-56.985 z"
       style="fill:#99c1f1;fill-opacity:1;fill-rule:nonzero;stroke:none;stroke-width:2.91487;stroke-miterlimit:4"
       id="path2043" />
    <path
       d="m -80.314,114.83 c 11.985,0.73 25.133,-45.734 2.609,-42.812 -22.515,2.923 -14.598,42.082 -2.609,42.812 z"
       style="fill:#99c1f1;fill-opacity:1;fill-rule:nonzero;stroke:none;stroke-width:2.91487;stroke-miterlimit:4"
       id="path2045" />
    <path
       d="m -135.24,143.7 c 8.53,-3.75 1.1,-40.45 -13.39,-30.44 -14.49,10.01 4.87,34.19 13.39,30.44 z"
       style="fill:#99c1f1;fill-opacity:1;fill-rule:nonzero;stroke:none;stroke-width:2.91487;stroke-miterlimit:4"
       id="path2047" />
    <path
       d="m -111.22,124.5 c 10.15,-2.07 10.7,-43.693 -7.39,-36.227 -18.1,7.468 -2.75,38.297 7.39,36.227 z"
       style="fill:#99c1f1;fill-opacity:1;fill-rule:nonzero;stroke:none;stroke-width:2.91487;stroke-miterlimit:4"
       id="path2049" />
    <path
       d="m -58.238,217.64 c 1.8,13.75 -10.087,20.53 -21.728,11.67 -37.054,-28.21 61.359,-42.29 54.872,-80.84 -5.385,-31.99 -103.556,-22.14 -114.736,27.92 -7.57,33.86 31.15,80.84 71.546,80.84 19.874,0 42.796,-17.94 47.085,-40.68 3.275,-17.33 -38.542,-10.38 -37.039,1.09 z"
       style="fill:#99c1f1;fill-opacity:1;fill-rule:nonzero;stroke:none;stroke-width:2.91487;stroke-miterlimit:4"
       id="path2051" />
  </g>
</svg>
