<?xml version="1.0" encoding="UTF-8" standalone="no" ?>
<svg xml:space="preserve" width="128" height="128" fill="none" version="1.1" id="svg18" sodipodi:docname="devenv.svg" inkscape:version="1.4.3 (0d15f75042, 2025-12-25)" xmlns:inkscape="http://www.inkscape.org/namespaces/inkscape" xmlns:sodipodi="http://sodipodi.sourceforge.net/DTD/sodipodi-0.dtd" xmlns="http://www.w3.org/2000/svg" xmlns:svg="http://www.w3.org/2000/svg"><sodipodi:namedview
		id="namedview18"
		pagecolor="#ffffff"
		bordercolor="#000000"
		borderopacity="0.25"
		inkscape:showpageshadow="2"
		inkscape:pageopacity="0.0"
		inkscape:pagecheckerboard="true"
		inkscape:deskcolor="#d1d1d1"
		inkscape:zoom="2.171"
		inkscape:cx="80.146"
		inkscape:cy="110.55"
		inkscape:window-width="1920"
		inkscape:window-height="1011"
		inkscape:window-x="0"
		inkscape:window-y="0"
		inkscape:window-maximized="1"
		inkscape:current-layer="svg18"
	/>
  <defs id="defs8">
		<linearGradient id="a" x1="36.45" x2="11.82" y1="47.83" y2="5.175" gradientTransform="matrix(16.668,0,0,16.668,0,-100)" gradientUnits="userSpaceOnUse">
			<stop offset="0" stop-color="#07072c" id="stop1" />
			<stop offset="1" stop-color="#0e0e58" id="stop2" />
		</linearGradient>
		<linearGradient id="e" x1="49.939" x2="49.939" y1="0.258" y2="99.742" gradientUnits="userSpaceOnUse">
			<stop stop-color="white" id="stop3" />
			<stop offset="1" stop-color="white" stop-opacity="0" id="stop4" />
		</linearGradient>
		<filter id="c" width="116.73" height="92.246" x="-8.394" y="15.829" color-interpolation-filters="sRGB" filterUnits="userSpaceOnUse">
			<feFlood flood-opacity="0" result="BackgroundImageFix" id="feFlood4" />
			<feColorMatrix in="SourceAlpha" values="0 0 0 0 0 0 0 0 0 0 0 0 0 0 0 0 0 0 127 0" id="feColorMatrix4" />
			<feOffset id="feOffset4" />
			<feGaussianBlur stdDeviation="4.167" id="feGaussianBlur4" />
			<feColorMatrix values="0 0 0 0 0 0 0 0 0 0 0 0 0 0 0 0 0 0 0.25 0" id="feColorMatrix5" />
			<feBlend in2="BackgroundImageFix" mode="overlay" result="effect1_dropShadow" id="feBlend5" />
			<feBlend in="SourceGraphic" in2="effect1_dropShadow" result="shape" id="feBlend6" mode="normal" />
		</filter>
		<filter id="d" width="47.917" height="116.15" x="60.417" y="-8.076" color-interpolation-filters="sRGB" filterUnits="userSpaceOnUse">
			<feFlood flood-opacity="0" result="BackgroundImageFix" id="feFlood6" />
			<feColorMatrix in="SourceAlpha" values="0 0 0 0 0 0 0 0 0 0 0 0 0 0 0 0 0 0 127 0" id="feColorMatrix6" />
			<feOffset id="feOffset6" />
			<feGaussianBlur stdDeviation="4.167" id="feGaussianBlur6" />
			<feColorMatrix values="0 0 0 0 0 0 0 0 0 0 0 0 0 0 0 0 0 0 0.25 0" id="feColorMatrix7" />
			<feBlend in2="BackgroundImageFix" mode="overlay" result="effect1_dropShadow" id="feBlend7" />
			<feBlend in="SourceGraphic" in2="effect1_dropShadow" result="shape" id="feBlend8" mode="normal" />
		</filter>
		<mask id="b" width="100" height="100" x="0" y="0" mask-type="alpha" maskUnits="userSpaceOnUse">
			<path
				fill="#ffffff"
				fill-rule="evenodd"
				d="m 70.912,99.317 a 6.223,6.223 0 0 0 4.961,-0.191 l 20.588,-9.906 a 6.252,6.252 0 0 0 3.539,-5.633 v -67.174 a 6.25,6.25 0 0 0 -3.539,-5.632 l -20.588,-9.907 a 6.228,6.228 0 0 0 -7.104,1.21 l -39.414,35.957 -17.168,-13.031 a 4.162,4.162 0 0 0 -5.318,0.236 l -5.506,5.009 a 4.168,4.168 0 0 0 0,6.162 l 14.888,13.583 -14.889,13.583 a 4.168,4.168 0 0 0 0,6.162 l 5.506,5.009 a 4.161,4.161 0 0 0 5.318,0.236 l 17.168,-13.031 39.414,35.958 a 6.226,6.226 0 0 0 2.143,1.4 z m 4.103,-72.018 -29.906,22.701 29.906,22.701 z"
				clip-rule="evenodd"
				id="path8"
			/>
		</mask>
	</defs>

  <g id="g19" transform="scale(0.125)">
		<path fill="#cccccc" d="m 0,116.68 h 266.66 v -116.68 h -233.332 c -18.329,0 -33.328,14.996 -33.328,33.346 z" id="path9" />
		<path fill="#999999" d="m 533.34,0 h -266.68 v 116.68 h 266.68 z" id="path10" />
		<path fill="#666666" d="m 800,116.68 h -266.66 v -116.68 h 233.34 c 18.32,0 33.32,14.996 33.32,33.346 z" id="path11" />
		<path fill="url(#a)" d="m 766.68,600 h -733.352 c -18.329,0 -33.328,-15 -33.328,-33.34 v -466.66 h 800 v 466.66 c 0,18.34 -15,33.34 -33.32,33.34 z" id="path12" style="fill:url(#a)" />
		<path fill="#999999" d="m 205.41,299.65 -172.967,172.94 c -9.829,9.84 -9.829,23.58 0,31.45 l 35.377,35.38 c 9.828,9.82 23.595,9.82 31.449,0 l 172.951,-172.95 c 9.83,-9.83 9.83,-23.6 0,-31.45 l -35.38,-35.37 c -7.86,-7.85 -23.58,-7.85 -31.43,0 z" filter="url(#filter0_dd)" id="path13" />
		<path fill="#cccccc" d="m 99.269,162.07 172.951,172.95 c 9.83,9.83 9.83,23.59 0,31.45 l -35.38,35.38 c -9.82,9.83 -23.58,9.83 -31.43,0 l -172.967,-172.96 c -9.829,-9.82 -9.829,-23.59 0,-31.45 l 35.377,-35.37 c 7.86,-7.86 23.595,-7.86 31.449,0 z" filter="url(#filter0_dd)" id="path14" />
		<g mask="url(#b)" transform="matrix(8,0,0,8,224,226.06)" id="g18">
			<path fill="#0065a9" d="m 96.461,10.796 -20.604,-9.92 a 6.23,6.23 0 0 0 -7.107,1.207 l -67.451,61.5 a 4.167,4.167 0 0 0 0,6.162 l 5.51,5.009 a 4.166,4.166 0 0 0 5.321,0.236 l 81.227,-61.62 c 2.725,-2.067 6.639,-0.124 6.639,3.297 v -0.24 a 6.25,6.25 0 0 0 -3.539,-5.631 z" id="path15" />
			<g filter="url(#c)" id="g16">
				<path fill="#007acc" d="m 96.461,89.204 -20.604,9.921 a 6.236,6.236 0 0 1 -7.107,-1.208 l -67.451,-61.5 a 4.167,4.167 0 0 1 0,-6.162 l 5.51,-5.009 a 4.167,4.167 0 0 1 5.321,-0.237 l 81.227,61.621 c 2.725,2.067 6.639,0.124 6.639,-3.297 v 0.24 a 6.25,6.25 0 0 1 -3.539,5.631 z" id="path16" />
			</g>
			<g filter="url(#d)" id="g17">
				<path fill="#1f9cf0" d="m 75.858,99.126 a 6.237,6.237 0 0 1 -7.108,-1.209 c 2.306,2.303 6.25,0.673 6.25,-2.589 v -90.656 c 0,-3.262 -3.944,-4.895 -6.25,-2.589 a 6.232,6.232 0 0 1 7.108,-1.21 l 20.601,9.908 a 6.25,6.25 0 0 1 3.541,5.632 v 67.174 a 6.252,6.252 0 0 1 -3.541,5.633 z" id="path17" />
			</g>
			<path
				fill="url(#e)"
				fill-rule="evenodd"
				d="m 70.851,99.317 a 6.223,6.223 0 0 0 4.961,-0.191 l 20.588,-9.906 a 6.252,6.252 0 0 0 3.539,-5.633 v -67.174 a 6.248,6.248 0 0 0 -3.539,-5.632 l -20.588,-9.907 a 6.226,6.226 0 0 0 -7.104,1.21 l -39.414,35.956 -17.168,-13.03 a 4.16,4.16 0 0 0 -5.317,0.236 l -5.507,5.009 a 4.168,4.168 0 0 0 0,6.162 l 14.888,13.583 -14.888,13.583 a 4.168,4.168 0 0 0 0,6.162 l 5.507,5.009 a 4.16,4.16 0 0 0 5.317,0.236 l 17.168,-13.031 39.414,35.958 a 6.24,6.24 0 0 0 2.143,1.4 z m 4.103,-72.018 -29.906,22.701 29.906,22.701 z"
				clip-rule="evenodd"
				opacity="0.25"
				style="mix-blend-mode:overlay;fill:url(#e)"
				id="path18"
			/>
		</g>
	</g>
</svg>
